# xmcd
#
# Track frame offsets: 
#        150
#        17397
#        36725
#        58732
#        79682
#        100437
#        117187
#        134975
#        155372
#        176842
#
# Disc length: 2668 seconds
#
# Revision: 1
# Processed by: cddbd v1.5.2PL0 Copyright (c) Steve Scherf et al.
# Submitted via: ExactAudioCopy v1.1
#
DISCID=8b0a6a0a
DTITLE=吴奇隆 - 追风少年
DYEAR=1992
DGENRE=
TTITLE0=追风少年
TTITLE1=祝你一路顺风
TTITLE2=用一颗真心还你的痴心
TTITLE3=你的微笑依然像新的一样
TTITLE4=我相信永远的爱情
TTITLE5=放在心上
TTITLE6=只要你知道就好
TTITLE7=要你再爱我一点
TTITLE8=思念就像一条河
TTITLE9=追风少年(演奏曲)
EXTD=
EXTT0=
EXTT1=
EXTT2=
EXTT3=
EXTT4=
EXTT5=
EXTT6=
EXTT7=
EXTT8=
EXTT9=
PLAYORDER=
